HIERARCHY
ROOT Hips
{
	OFFSET -0.001795 -0.223333 0.028219
	CHANNELS 6 Xposition Yposition Zposition Zrotation Yrotation Xrotation 
	JOINT LeftUpLeg
	{
		OFFSET 0.069520 -0.091406 -0.006815
		CHANNELS 3 Zrotation Yrotation Xrotation
		JOINT LeftLeg
		{
			OFFSET 0.034277 -0.375199 -0.004496
			CHANNELS 3 Zrotation Yrotation Xrotation
			JOINT LeftFoot
			{
				OFFSET -0.013596 -0.397961 -0.043693
				CHANNELS 3 Zrotation Yrotation Xrotation
				JOINT LeftToe
				{
					OFFSET 0.026358 -0.055791 0.119288
					CHANNELS 3 Zrotation Yrotation Xrotation
					End Site
					{
						OFFSET 0.000000 0.000000 0.000000
					}
				}
			}
		}
	}
	JOINT RightUpLeg
	{
		OFFSET -0.067670 -0.090522 -0.004320
		CHANNELS 3 Zrotation Yrotation Xrotation
		JOINT RightLeg
		{
			OFFSET -0.038290 -0.382569 -0.008850
			CHANNELS 3 Zrotation Yrotation Xrotation
			JOINT RightFoot
			{
				OFFSET 0.015774 -0.398415 -0.042312
				CHANNELS 3 Zrotation Yrotation Xrotation
				JOINT RightToe
				{
					OFFSET -0.025372 -0.048144 0.123348
					CHANNELS 3 Zrotation Yrotation Xrotation
					End Site
					{
						OFFSET 0.000000 0.000000 0.000000
					}
				}
			}
		}
	}
	JOINT Spine
	{
		OFFSET -0.002533 0.108963 -0.026696
		CHANNELS 3 Zrotation Yrotation Xrotation
		JOINT Spine1
		{
			OFFSET 0.005487 0.135180 0.001092
			CHANNELS 3 Zrotation Yrotation Xrotation
			JOINT Spine2
			{
				OFFSET 0.001457 0.052922 0.025425
				CHANNELS 3 Zrotation Yrotation Xrotation
				JOINT Neck
				{
					OFFSET -0.002778 0.213870 -0.042857
					CHANNELS 3 Zrotation Yrotation Xrotation
					JOINT Head
					{
						OFFSET 0.005152 0.064970 0.051349
						CHANNELS 3 Zrotation Yrotation Xrotation
						End Site
						{
							OFFSET 0.000000 0.000000 0.000000
						}
					}
				}
				JOINT LeftShoulder
				{
					OFFSET 0.078845 0.121749 -0.034090
					CHANNELS 3 Zrotation Yrotation Xrotation
					JOINT LeftArm
					{
						OFFSET 0.090977 0.030469 -0.008868
						CHANNELS 3 Zrotation Yrotation Xrotation
						JOINT LeftForeArm
						{
							OFFSET 0.259612 -0.012772 -0.027456
							CHANNELS 3 Zrotation Yrotation Xrotation
							JOINT LeftHand
							{
								OFFSET 0.249234 0.008986 -0.001171
								CHANNELS 3 Zrotation Yrotation Xrotation
								End Site
								{
									OFFSET 0.000000 0.000000 0.000000
								}
							}
						}
					}
				}
				JOINT RightShoulder
				{
					OFFSET -0.081759 0.118833 -0.038615
					CHANNELS 3 Zrotation Yrotation Xrotation
					JOINT RightArm
					{
						OFFSET -0.096012 0.032551 -0.009143
						CHANNELS 3 Zrotation Yrotation Xrotation
						JOINT RightForeArm
						{
							OFFSET -0.253742 -0.013329 -0.021401
							CHANNELS 3 Zrotation Yrotation Xrotation
							JOINT RightHand
							{
								OFFSET -0.255298 0.007772 -0.005559
								CHANNELS 3 Zrotation Yrotation Xrotation
								End Site
								{
									OFFSET 0.000000 0.000000 0.000000
								}
							}
						}
					}
				}
			}
		}
	}
}
MOTION
Frames: 9
Frame Time: 0.050000
0.095268 0.909222 1.095043 -2.772199 4.204182 -0.596433 7.356784 -0.634183 -15.564628 -8.219789 1.887251 61.036872 2.996640 7.260901 2.860227 0.000000 0.000000 0.000000 1.093557 3.649309 -37.091512 2.056481 0.031385 32.171387 -1.336675 -7.080515 12.204733 0.000000 0.000000 0.000000 6.294944 -1.490936 13.978821 -0.879559 0.509563 -2.825601 -3.245643 5.737673 7.599679 4.663596 0.388225 -25.067788 0.000000 0.000000 0.000000 -18.502768 -5.989921 -0.793853 -44.319708 -14.788199 0.388072 -1.144321 -52.975664 1.093170 0.000000 0.000000 0.000000 16.798044 1.430348 1.205552 52.343630 3.071660 -4.347453 23.749766 49.648782 14.602179 0.000000 0.000000 0.000000 
0.091220 0.905059 1.131967 -2.954656 3.539484 -0.897141 9.528401 -0.585994 -25.845185 -11.292461 4.981626 69.160978 5.594875 12.222510 2.712079 0.000000 0.000000 0.000000 2.269120 4.062945 -36.705017 1.748851 0.240955 36.521304 -1.441769 -6.324911 8.235415 0.000000 0.000000 0.000000 5.391426 -1.709757 17.498013 -1.416267 0.756550 -3.285158 -2.700980 8.956317 7.135410 6.906230 -0.179044 -26.771875 0.000000 0.000000 0.000000 -19.093165 -7.731671 -0.788650 -45.708994 -10.749170 -0.768966 -5.299605 -58.782857 2.742772 0.000000 0.000000 0.000000 16.437441 2.948581 2.595657 52.531891 7.287183 -2.593080 26.107122 56.454502 19.160478 0.000000 0.000000 0.000000 
0.089465 0.891550 1.163355 -3.160642 2.908083 -0.526659 10.143508 -0.598145 -34.766454 -12.600282 6.493450 68.961973 6.600670 13.277378 -2.698625 0.000000 0.000000 0.000000 2.182513 4.329349 -38.760979 2.541109 -0.040305 43.293569 -1.796751 -5.453985 2.638505 0.000000 0.000000 0.000000 4.381715 -1.965528 22.068808 -1.943692 0.993143 -4.019891 -2.405960 10.899036 5.938595 7.730000 -0.359289 -26.912775 0.000000 0.000000 0.000000 -20.689487 -9.938649 -0.418027 -44.380478 -7.550079 -1.485829 -9.959125 -62.065494 5.324339 0.000000 0.000000 0.000000 16.565886 3.794313 3.397420 51.237472 11.052420 -0.998557 29.796333 63.274031 25.045962 0.000000 0.000000 0.000000 
0.089926 0.864347 1.190805 -3.590359 2.757578 -0.716254 9.624971 -0.900915 -40.572706 -11.852378 5.747322 66.417339 5.317661 9.580766 -6.233960 0.000000 0.000000 0.000000 2.431943 4.960923 -43.485530 3.712558 -0.771836 53.399833 -3.081098 -7.269852 -1.427899 0.000000 0.000000 0.000000 3.736489 -2.242697 26.569951 -2.201710 1.118952 -5.475512 -2.105782 12.053412 6.320188 9.288087 -0.597611 -29.632380 0.000000 0.000000 0.000000 -23.136707 -12.219383 0.055708 -42.840482 -6.312572 -1.516145 -10.631756 -64.606513 5.852311 0.000000 0.000000 0.000000 17.266596 5.691003 4.782431 49.743977 13.857709 -0.069164 30.156185 69.996714 29.113051 0.000000 0.000000 0.000000 
0.092314 0.824591 1.216348 -4.335185 2.133061 -0.669598 9.144978 -1.064532 -43.441761 -10.336065 4.846927 67.619113 5.184738 8.038691 -10.137339 0.000000 0.000000 0.000000 3.219965 5.948553 -48.140656 4.389250 -1.220826 62.632223 -4.048432 -8.254981 -6.455598 0.000000 0.000000 0.000000 3.521150 -2.401318 29.304617 -2.615473 1.284022 -5.085050 -2.141582 13.221350 5.389380 9.487907 -0.437984 -30.447809 0.000000 0.000000 0.000000 -24.706279 -14.428532 0.678243 -41.722756 -5.594524 -1.341325 -6.946085 -66.841723 3.465153 0.000000 0.000000 0.000000 19.372911 6.858837 6.026747 47.915609 14.804029 -0.011496 32.886395 77.330819 35.760875 0.000000 0.000000 0.000000 
0.096060 0.780512 1.239070 -5.379421 1.752493 -0.987089 7.757707 -1.635737 -45.778200 -7.888887 3.252299 75.796415 6.910602 11.025302 -16.268020 0.000000 0.000000 0.000000 4.321928 7.355879 -54.122903 4.142111 -1.073791 75.079385 -5.607437 -12.234462 -8.670771 0.000000 0.000000 0.000000 3.439594 -2.578270 31.770969 -2.991475 1.442533 -4.473005 -1.887275 12.488753 4.483320 9.681679 -0.053753 -34.653106 0.000000 0.000000 0.000000 -27.598104 -18.195548 2.957860 -38.870908 -7.868771 -0.321582 2.262258 -66.792407 -2.047466 0.000000 0.000000 0.000000 23.566138 9.231205 7.940486 43.690570 16.585456 0.128078 26.689296 79.060747 30.541923 0.000000 0.000000 0.000000 
0.099949 0.751437 1.257345 -5.420926 3.652431 -2.267713 4.962050 -3.034660 -44.449678 -7.318950 1.792710 80.608876 9.244571 17.189346 -25.244845 0.000000 0.000000 0.000000 4.242885 7.157434 -56.791838 3.423967 -1.287880 84.372348 -6.648158 -15.002030 -10.661871 0.000000 0.000000 0.000000 3.321505 -2.819969 32.716787 -2.712415 1.351661 -4.669057 -1.454896 10.230831 4.778092 7.910329 0.735023 -36.992714 0.000000 0.000000 0.000000 -29.768814 -19.157172 4.124882 -36.856733 -13.696156 1.275899 6.970091 -68.498765 -4.794990 0.000000 0.000000 0.000000 24.996925 10.743336 8.590970 41.934230 16.385676 -0.030316 13.449899 83.053329 20.072252 0.000000 0.000000 0.000000 
0.103647 0.746208 1.274732 -5.197804 4.877400 -3.876126 4.196578 -3.191526 -40.892937 -7.774847 1.456488 82.064263 9.620264 18.333026 -29.455572 0.000000 0.000000 0.000000 2.698976 6.067746 -57.411224 4.730861 -3.573404 89.341619 -6.131935 -13.645945 -8.796159 0.000000 0.000000 0.000000 3.279632 -2.988626 33.381797 -1.930607 1.046042 -5.314952 -2.468302 8.526577 5.323181 8.910082 0.544138 -39.890292 0.000000 0.000000 0.000000 -25.123723 -21.583358 6.171375 -33.978783 -20.595212 2.709065 32.773100 -77.141340 -26.737066 0.000000 0.000000 0.000000 21.555316 10.270354 7.334663 42.265482 16.238448 0.168647 -162.862256 87.089160 -152.176650 0.000000 0.000000 0.000000 
0.108160 0.781897 1.294946 -5.056180 4.713376 -4.054212 4.322810 -2.470526 -34.246519 -7.533204 1.081540 73.695935 9.798776 19.010162 -23.781261 0.000000 0.000000 0.000000 3.799443 6.159620 -52.539054 3.853044 -2.500330 85.297028 -5.936147 -13.773269 -5.154840 0.000000 0.000000 0.000000 3.130087 -2.594272 30.326056 0.050291 0.181775 -5.002655 -4.443494 8.036578 4.586571 9.735952 0.398290 -41.186517 0.000000 0.000000 0.000000 -17.067791 -19.960051 5.499713 -31.698124 -27.441549 3.791683 99.265421 -76.979491 -87.321628 0.000000 0.000000 0.000000 16.154677 8.007337 5.128340 40.634330 15.336979 0.189125 -148.129328 77.083203 -128.915635 0.000000 0.000000 0.000000 
